name ./resultDataOpenSim/trcMotMarkerGrf/sub06/grf-12-08.mot
datacolumns 19
datarows 15
range 1.03600000 1.09200000
endheader

                time	     ground_force_vx	     ground_force_vy	     ground_force_vz	     ground_force_px	     ground_force_py	     ground_force_pz	   l_ground_force_vx	   l_ground_force_vy	   l_ground_force_vz	   l_ground_force_px	   l_ground_force_py	   l_ground_force_pz	     ground_torque_x	     ground_torque_y	     ground_torque_z	   l_ground_torque_x	   l_ground_torque_y	   l_ground_torque_z	
          1.03600000	          0.00000000	          0.00000000	          0.00000000	          0.00000000	          0.00000000	          0.00000000	        111.16223828	        745.07894942	         33.46262884	          0.10944585	         -0.02500200	         -0.04264587	          0.00000000	          0.00000000	          0.00000000	          0.00000000	         -2.68720025	          0.00000000	
          1.04000000	          0.00000000	          0.00000000	          0.00000000	          0.00000000	          0.00000000	          0.00000000	        118.02774792	        757.17816108	         33.29111602	          0.10998436	         -0.02500200	         -0.04228741	          0.00000000	          0.00000000	          0.00000000	          0.00000000	         -2.81182396	          0.00000000	
          1.04400000	          0.00000000	          0.00000000	          0.00000000	          0.00000000	          0.00000000	          0.00000000	        124.97064980	        767.13053545	         32.88047022	          0.11057762	         -0.02500200	         -0.04188113	          0.00000000	          0.00000000	          0.00000000	          0.00000000	         -2.93420430	          0.00000000	
          1.04800000	          0.00000000	          0.00000000	          0.00000000	          0.00000000	          0.00000000	          0.00000000	        131.99587990	        774.72909038	         32.27392048	          0.11124071	         -0.02500200	         -0.04144314	          0.00000000	          0.00000000	          0.00000000	          0.00000000	         -3.04845914	          0.00000000	
          1.05200000	          0.00000000	          0.00000000	          0.00000000	          0.00000000	          0.00000000	          0.00000000	        139.10496604	        779.83758491	         31.51798385	          0.11195651	         -0.02500152	         -0.04100326	          0.00000000	          0.00000000	          0.00000000	          0.00000000	         -3.14870891	          0.00000000	
          1.05600000	          0.00000000	          0.00000000	          0.00000000	          0.00000000	          0.00000000	          0.00000000	        146.26463046	        782.38126370	         30.64964258	          0.11268744	         -0.02500100	         -0.04059371	          0.00000000	          0.00000000	          0.00000000	          0.00000000	         -3.22973994	          0.00000000	
          1.06000000	          0.00000000	          0.00000000	          0.00000000	          0.00000000	          0.00000000	          0.00000000	        153.38936376	        782.36913086	         29.69720578	          0.11340471	         -0.02500100	         -0.04023642	          0.00000000	          0.00000000	          0.00000000	          0.00000000	         -3.28757184	          0.00000000	
          1.06400000	          0.00000000	          0.00000000	          0.00000000	          0.00000000	          0.00000000	          0.00000000	        160.36107636	        779.88546201	         28.68326478	          0.11411406	         -0.02500100	         -0.03993868	          0.00000000	          0.00000000	          0.00000000	          0.00000000	         -3.31971025	          0.00000000	
          1.06800000	          0.00000000	          0.00000000	          0.00000000	          0.00000000	          0.00000000	          0.00000000	        167.06411807	        775.04647475	         27.62738000	          0.11485635	         -0.02500100	         -0.03969267	          0.00000000	          0.00000000	          0.00000000	          0.00000000	         -3.32500228	          0.00000000	
          1.07200000	          0.00000000	          0.00000000	          0.00000000	          0.00000000	          0.00000000	          0.00000000	        173.40161359	        767.93384481	         26.54922492	          0.11567989	         -0.02500081	         -0.03947834	          0.00000000	          0.00000000	          0.00000000	          0.00000000	         -3.30314630	          0.00000000	
          1.07600000	          0.00000000	          0.00000000	          0.00000000	          0.00000000	          0.00000000	          0.00000000	        179.28275662	        758.54438303	         25.47411661	          0.11661009	         -0.02500025	         -0.03927382	          0.00000000	          0.00000000	          0.00000000	          0.00000000	         -3.25403169	          0.00000000	
          1.08000000	          0.00000000	          0.00000000	          0.00000000	          0.00000000	          0.00000000	          0.00000000	        184.60636605	        746.81292707	         24.44104090	          0.11763628	         -0.02500000	         -0.03905573	          0.00000000	          0.00000000	          0.00000000	          0.00000000	         -3.17721552	          0.00000000	
          1.08400000	          0.00000000	          0.00000000	          0.00000000	          0.00000000	          0.00000000	          0.00000000	        189.26396324	        732.66811266	         23.49134057	          0.11871715	         -0.02500000	         -0.03878822	          0.00000000	          0.00000000	          0.00000000	          0.00000000	         -3.07184959	          0.00000000	
          1.08800000	          0.00000000	          0.00000000	          0.00000000	          0.00000000	          0.00000000	          0.00000000	        193.14624872	        716.02484236	         22.63047982	          0.11978316	         -0.02499988	         -0.03845124	          0.00000000	          0.00000000	          0.00000000	          0.00000000	         -2.93714993	          0.00000000	
          1.09200000	         -5.44417040	         69.12392242	          8.50472135	          0.70427630	          0.00000000	          0.08253643	        196.13553036	        696.72182097	         21.80516015	          0.12077786	         -0.02499900	         -0.03807120	          0.00000000	          0.30425271	          0.00000000	          0.00000000	         -2.77320777	          0.00000000	
